<svg xmlns="http://www.w3.org/2000/svg" width="175" height="98" viewBox="0 0 175 98"><g fill="none" fill-rule="evenodd"><polygon fill="#000" points="13.111 40.625 31.007 40.625 27.803 0 9.433 0"/><polygon fill="#00F7FF" points="0 60.472 19.929 60.472 19.929 40.625 0 40.625"/><polygon fill="#000" points="98.767 .066 80.783 .066 75.648 59.212 75.714 60.579 58.33 18.642 49.974 18.642 32.645 60.423 32.645 60.471 32.626 60.471 32.581 60.579 32.573 60.471 14.908 60.471 18.252 97.419 32.923 97.484 54.152 46.353 75.369 97.484 90.456 97.484"/><polygon fill="#000" points="161.061 56.86 143.165 56.86 146.369 97.484 164.739 97.484"/><polygon fill="#00F" points="154.242 56.861 174.171 56.861 174.171 37.014 154.242 37.014"/><polygon fill="#000" points="155.919 .066 141.249 0 120.02 51.131 98.802 .066 83.715 .066 75.157 97.419 88.389 97.419 95.909 30.475 98.458 36.905 115.841 78.841 124.198 78.841 141.526 37.06 141.526 37.013 141.545 37.013 141.59 36.905 141.599 37.013 159.264 37.013"/></g></svg>